<svg id="Layer_1" data-name="Layer 1" xmlns="http://www.w3.org/2000/svg" viewBox="0 0 273.39 114.7"><defs><style>.cls-1{font-size:78px;font-family:Poppins-ExtraBold, Poppins;font-weight:800;letter-spacing:0.1em;}.cls-1,.cls-2{fill:#fff;}</style></defs><text class="cls-1" transform="translate(0 66.65)">ZAWR</text><rect class="cls-2" x="3.9" y="80.59" width="89.47" height="20.94"/><path class="cls-2" d="M107.54,84.62V99.53h-2.09V84.62Z"/><path class="cls-2" d="M116.48,99.52V84.62h1.9l7.29,11.52-.25.27V84.62h2.07v14.9h-1.91l-7.27-11.36.24-.26V99.52Z"/><path class="cls-2" d="M136.44,99.53V84.62h2.09V99.53Zm1.41,0v-2h3.38a3.56,3.56,0,0,0,2.55-.86,3.14,3.14,0,0,0,.91-2.41V89.88a3.15,3.15,0,0,0-.91-2.42,3.56,3.56,0,0,0-2.55-.85h-3.38v-2h3.31a5.83,5.83,0,0,1,4.19,1.4A5.14,5.14,0,0,1,146.83,90v4.22a5.91,5.91,0,0,1-.66,2.89,4.39,4.39,0,0,1-1.94,1.82,6.74,6.74,0,0,1-3.08.64Z"/><path class="cls-2" d="M160.08,99.68a5,5,0,0,1-3.86-1.45,5.75,5.75,0,0,1-1.37-4.1V84.62h2.09V94.2a3.65,3.65,0,0,0,.82,2.53,3,3,0,0,0,2.32.89,3.06,3.06,0,0,0,2.34-.89,3.65,3.65,0,0,0,.82-2.53V84.62h2.09v9.51a5.75,5.75,0,0,1-1.37,4.1A5.08,5.08,0,0,1,160.08,99.68Z"/><path class="cls-2" d="M178.14,99.68a9.56,9.56,0,0,1-2-.21,7.41,7.41,0,0,1-1.79-.61,7.59,7.59,0,0,1-1.57-1l1.31-1.6a5.59,5.59,0,0,0,1.87,1.11,6.48,6.48,0,0,0,2.23.37,4.46,4.46,0,0,0,2.51-.6,2,2,0,0,0,.89-1.7h0a1.77,1.77,0,0,0-.45-1.3,2.77,2.77,0,0,0-1.18-.67,11.6,11.6,0,0,0-1.61-.36c-.56-.1-1.12-.21-1.7-.34a5.83,5.83,0,0,1-1.57-.61,3.09,3.09,0,0,1-1.15-1.2,4.26,4.26,0,0,1-.44-2.08h0a3.92,3.92,0,0,1,1.39-3.22,5.91,5.91,0,0,1,3.9-1.15,7.28,7.28,0,0,1,2.35.39A8.3,8.3,0,0,1,183.32,86l-1.19,1.66a6.72,6.72,0,0,0-1.7-.94,4.81,4.81,0,0,0-1.7-.31,4,4,0,0,0-2.37.61,2,2,0,0,0-.85,1.73h0a1.65,1.65,0,0,0,.49,1.28,3,3,0,0,0,1.29.65c.53.14,1.1.27,1.71.4s1.09.24,1.64.39a5.6,5.6,0,0,1,1.49.67,3.19,3.19,0,0,1,1.08,1.19,4.23,4.23,0,0,1,.4,2v0a3.83,3.83,0,0,1-1.43,3.19A6.43,6.43,0,0,1,178.14,99.68Z"/><path class="cls-2" d="M189.79,86.61v-2h10.52v2ZM194,99.53V85.84h2.09V99.53Z"/><path class="cls-2" d="M207.61,99.53V84.61h2.09V99.53Zm.91-6.31v-2h5.09a1.83,1.83,0,0,0,1.46-.64,2.8,2.8,0,0,0,0-3.36,1.86,1.86,0,0,0-1.46-.63h-5.09v-2h5a4.74,4.74,0,0,1,2.28.53,3.78,3.78,0,0,1,1.51,1.51,5,5,0,0,1,0,4.52,3.85,3.85,0,0,1-1.51,1.51,4.63,4.63,0,0,1-2.28.54ZM216,99.53l-3.42-6.77,2.08-.47,3.82,7.24Z"/><path class="cls-2" d="M228.64,84.62V99.53h-2.09V84.62Z"/><path class="cls-2" d="M237.58,99.53V84.62h2.09V99.53Zm1-12.92v-2h8.56v2Zm0,6.51v-2H246v2Zm0,6.41v-2h8.56v2Z"/><path class="cls-2" d="M259.86,99.68a9.53,9.53,0,0,1-2-.21,7.64,7.64,0,0,1-1.8-.61,7.52,7.52,0,0,1-1.56-1l1.3-1.6a5.63,5.63,0,0,0,1.88,1.11,6.39,6.39,0,0,0,2.22.37,4.46,4.46,0,0,0,2.51-.6,1.94,1.94,0,0,0,.9-1.7h0a1.73,1.73,0,0,0-.46-1.3,2.77,2.77,0,0,0-1.18-.67,11.45,11.45,0,0,0-1.6-.36c-.56-.1-1.13-.21-1.7-.34a5.7,5.7,0,0,1-1.57-.61,3.12,3.12,0,0,1-1.16-1.2,4.26,4.26,0,0,1-.43-2.08h0a3.94,3.94,0,0,1,1.38-3.22,5.94,5.94,0,0,1,3.91-1.15,7.28,7.28,0,0,1,2.35.39A8.25,8.25,0,0,1,265,86l-1.19,1.66a6.56,6.56,0,0,0-1.7-.94,4.8,4.8,0,0,0-1.69-.31,4,4,0,0,0-2.38.61,2,2,0,0,0-.84,1.73h0a1.62,1.62,0,0,0,.49,1.28,3,3,0,0,0,1.29.65c.53.14,1.09.27,1.7.4s1.1.24,1.64.39a5.67,5.67,0,0,1,1.5.67,3.25,3.25,0,0,1,1.07,1.19,4.22,4.22,0,0,1,.41,2v0a3.81,3.81,0,0,1-1.44,3.19A6.41,6.41,0,0,1,259.86,99.68Z"/></svg>