<?xml version="1.0" encoding="UTF-8"?>
<svg id="Layer_1" data-name="Layer 1" xmlns="http://www.w3.org/2000/svg" viewBox="0 0 285.03 121.73">
  <defs>
    <style>
      .cls-1, .cls-2, .cls-3, .cls-4, .cls-5 {
        isolation: isolate;
      }

      .cls-6 {
        fill: none;
        stroke: #fff;
        stroke-linecap: round;
        stroke-miterlimit: 3;
        stroke-width: 2.25px;
      }

      .cls-7 {
        stroke-width: 0px;
      }

      .cls-7, .cls-2, .cls-3, .cls-4, .cls-5 {
        fill: #fff;
      }

      .cls-2, .cls-4 {
        font-size: 18px;
      }

      .cls-2, .cls-4, .cls-5 {
        font-family: ArialMT, Arial;
      }

      .cls-3 {
        font-family: Arial-BoldMT, Arial;
        font-size: 72px;
        font-weight: 700;
      }

      .cls-4 {
        letter-spacing: -.02em;
      }

      .cls-5 {
        font-size: 44.3px;
      }
    </style>
  </defs>
  <g>
    <g class="cls-1">
      <text class="cls-3" transform="translate(101.46 63.68)"><tspan x="0" y="0">H</tspan></text>
      <text class="cls-3" transform="translate(149.91 63.68)"><tspan x="0" y="0">E</tspan></text>
      <text class="cls-3" transform="translate(200.78 63.53)"><tspan x="0" y="0">X</tspan></text>
    </g>
    <g class="cls-1">
      <text class="cls-5" transform="translate(103.63 38.02) scale(1.45 1)"><tspan x="0" y="0"> </tspan></text>
    </g>
    <g class="cls-1">
      <text class="cls-2" transform="translate(105.5 99.69)"><tspan x="0" y="0">I</tspan></text>
      <text class="cls-2" transform="translate(116.36 99.69)"><tspan x="0" y="0">N</tspan></text>
      <text class="cls-2" transform="translate(133.94 99.69)"><tspan x="0" y="0">D</tspan></text>
      <text class="cls-2" transform="translate(150.45 99.69)"><tspan x="0" y="0">U</tspan></text>
      <text class="cls-2" transform="translate(167.35 99.69)"><tspan x="0" y="0">S</tspan></text>
      <text class="cls-4" transform="translate(182.02 99.69)"><tspan x="0" y="0">T</tspan></text>
      <text class="cls-2" transform="translate(205.17 99.69)"><tspan x="0" y="0">R</tspan></text>
      <text class="cls-2" transform="translate(197.83 99.69)"><tspan x="0" y="0">I</tspan></text>
      <text class="cls-2" transform="translate(222.69 99.69)"><tspan x="0" y="0">E</tspan></text>
      <text class="cls-2" transform="translate(237.84 99.69)"><tspan x="0" y="0">S</tspan></text>
    </g>
    <g class="cls-1">
      <text class="cls-5" transform="translate(267.22 107.35) scale(1.45 1)"><tspan x="0" y="0"> </tspan></text>
    </g>
  </g>
  <path class="cls-6" d="m91.11,5.06v95.71"/>
  <path class="cls-7" d="m.49,22.03L38.07.17l36.84,21.26-20.94,43.91-14.47-19.56c-.55-.74-1.65-.72-2.18.03l-14.76,21.07L.49,22.03Z"/>
  <polyline class="cls-7" points="21.29 68.54 10.21 84.64 0 24.93 21.29 68.54"/>
  <path class="cls-7" d="m23.33,68.54l14.36-20.87c.28-.4.87-.41,1.16-.01l14.22,19.86-14.87,32.17-14.87-31.15Z"/>
  <polygon class="cls-7" points="55.25 66.88 75.67 24.24 66.81 83.5 55.25 66.88"/>
  <polygon class="cls-7" points="39.29 100.83 54.23 69.3 65.46 85.07 39.29 100.83"/>
  <polygon class="cls-7" points="11.49 85.92 22.49 69.94 36.61 100.45 11.49 85.92"/>
</svg>