<?xml version="1.0" encoding="UTF-8"?>
<svg id="Layer_1" data-name="Layer 1" xmlns="http://www.w3.org/2000/svg" viewBox="0 0 375.45 129.54">
  <defs>
    <style>
      .cls-1 {
        font-family: AdobeGothicStd-Bold-KSCpc-EUC-H, 'Adobe Gothic Std';
        font-size: 29px;
        font-weight: 700;
        letter-spacing: .2em;
      }

      .cls-1, .cls-2 {
        fill: #ffff;
      }

      .cls-2, .cls-3 {
        stroke-width: 0px;
      }

      .cls-3 {
        fill: #fff;
      }
    </style>
  </defs>
  <text class="cls-1" transform="translate(154.97 121.27) scale(1.03 1)"><tspan x="0" y="0">INDUSTRIES</tspan></text>
  <polygon class="cls-2" points="0 0 58.34 0 58.34 16.22 25.53 59.95 58.34 59.95 58.34 77.22 0 77.22 0 60.65 32.45 17.98 0 18.34 0 0"/>
  <polygon class="cls-2" points="103.92 0 75.12 77.22 99.18 77.22 102.1 65.23 130.91 64.88 134.56 77.22 159.35 77.22 129.81 0 103.92 0"/>
  <polygon class="cls-3" points="117.23 22.57 108.67 49.01 125.07 49.01 117.23 22.57"/>
  <polygon class="cls-2" points="173.21 0 197.64 0 206.76 50.61 219.15 0 243.59 0 255.62 50.61 265.25 0 289.9 0 271.3 77.22 241.76 77.22 231.55 31.03 219.88 77.22 191.44 77.22 173.21 0"/>
  <path class="cls-2" d="M358.08,49.01c5.71,9.4,11.43,18.81,17.14,28.21h-25.89l-15.68-28.21h-2.19v28.21h-22.97V0h41.93c13.05,1.26,23.19,10.18,24.8,20.8,1.67,11.07-5.99,23.51-14.95,25.39-1.26.27-2.39.29-3.28.24l1.09,2.59Z"/>
  <path class="cls-3" d="M331.47,33.73v-15.52h13.37c3.87.82,6.63,4.08,6.69,7.76.05,3.33-2.14,6.41-5.47,7.64l-14.59.12Z"/>
  <rect class="cls-2" y="97.27" width="134.19" height="25.44"/>
</svg>